<?xml version="1.0" standalone="no"?>
<!DOCTYPE svg PUBLIC "-//W3C//DTD SVG 1.1//EN" "http://www.w3.org/Graphics/SVG/1.1/DTD/svg11.dtd">
<svg xmlns="http://www.w3.org/2000/svg" xmlns:xlink="http://www.w3.org/1999/xlink" version="1.1" viewBox="-10 0 532 512">
  <path fill="#a89984" d="M416 128h-1v0h-1q2 -8 2 -16q-1 -34 -23 -57q-23 -22 -57 -23q-38 1 -61 29q-14 -28 -40 -44 q-26 -17 -59 -17q-48 1 -79 33q-32 31 -33 79q0 11 2 21q-29 10 -47 34q-18 25 -19 57q1 41 28 68t68 28h47l140 -117q13 -11 31 -11q16 0 29 10t17 26t-3 32l-27 60h86q41 -1 68 -28t28 -68q-1 -41 -28 -68t-68 -28v0z"/>
  <path fill="#e9b142" d="M352 351h-71l47 -105q4 -12 -5 -20q-10 -6 -20 1l-153 128q-8 7 -5 18q4 10 15 10h71l-47 106q-4 11 5 19q3 4 9 4t11 -4l153 -128q8 -7 5 -17q-4 -11 -15 -12v0z"/>
</svg>
