<?xml version="1.0" standalone="no"?>
<!DOCTYPE svg PUBLIC "-//W3C//DTD SVG 1.1//EN" "http://www.w3.org/Graphics/SVG/1.1/DTD/svg11.dtd">
<svg xmlns="http://www.w3.org/2000/svg" xmlns:xlink="http://www.w3.org/1999/xlink" version="1.1" viewBox="-10 0 659 512">
  <path fill="#e9b142" d="M96 208q1 -48 33 -79v0q31 -31 78 -32q40 1 70 24q29 24 39 61q28 -14 59 -14q7 0 14 1l24 -35q6 -14 -8 -19l-88 -16l-16 -89q-5 -14 -19 -8l-74 52l-74 -52q-14 -6 -19 8l-16 89l-89 16q-14 5 -8 19l52 74l-52 74q-6 14 8 19l89 16l16 89q5 14 19 8l11 -8q5 -54 46 -88 q-41 -7 -68 -37q-26 -30 -27 -73v0zM128 208q1 34 23 57v0q23 22 57 23q15 0 28 -5q11 -52 51 -84q-4 -30 -26 -50q-21 -20 -53 -21q-34 1 -57 23q-22 23 -23 57v0z"/>
  <path fill="#ddc7a1" d="M575 326q0 -2 1 -3v0v-3q-1 -27 -19 -45t-44 -19q-19 0 -34 10q-14 -30 -41 -47q-27 -18 -61 -18 q-48 1 -79 33q-32 31 -33 78v5q1 2 1 4q-38 3 -63 30q-25 26 -26 65q0 41 26 68q27 27 68 28h272q41 -1 68 -28t28 -68q0 -32 -18 -56q-17 -24 -46 -34v0z"/>
</svg>
