<?xml version="1.0" standalone="no"?>
<!DOCTYPE svg PUBLIC "-//W3C//DTD SVG 1.1//EN" "http://www.w3.org/Graphics/SVG/1.1/DTD/svg11.dtd" >
<svg xmlns="http://www.w3.org/2000/svg" viewBox="-10 0 660 512">
  <path fill="#ddc7a1" d="M160 320h320q41 -1 68 -28t28 -68q-1 -41 -28 -68t-68 -28h-1h-1q2 -8 2 -16q-1 -34 -23 -57q-23 -22 -57 -23q-38 1 -61 29q-14 -28 -40 -44q-26 -17 -59 -17q-48 1 -79 33q-32 31 -33 79q0 11 2 21q-29 10 -47 34q-18 25 -19 57q1 41 28 68t68 28v0zM200 464h-113
q-9 0 -16 7t-7 16q0 10 7 17q7 8 16 8h113q22 -2 24 -24q-2 -22 -24 -24v0zM616 464h-321q-9 0 -16 7t-7 16q0 10 7 17q7 8 16 8h321q22 -2 24 -23q0 -10 -7 -17q-7 -8 -17 -8v0zM576 400q-2 -22 -24 -24h-528q-22 2 -24 23q2 23 23 25h528q23 -2 25 -24v0z"/>
</svg>
