<?xml version="1.0" standalone="no"?>
<!DOCTYPE svg PUBLIC "-//W3C//DTD SVG 1.1//EN" "http://www.w3.org/Graphics/SVG/1.1/DTD/svg11.dtd" >
<svg xmlns="http://www.w3.org/2000/svg" xmlns:xlink="http://www.w3.org/1999/xlink" version="1.1" viewBox="-10 0 660 512">
   <path fill="#ddc7a1"
d="M96 200v-8q2 -68 47 -113t113 -47q45 1 81 22q36 22 58 58q23 -16 53 -16q41 1 68 28t28 68q0 18 -6 35q44 9 73 44q28 34 29 81q-1 54 -37 91q-37 36 -91 37h-368q-61 -2 -102 -42q-40 -41 -42 -102q1 -48 27 -84t69 -52v0z" />
</svg>
