<?xml version="1.0" standalone="no"?>
<!DOCTYPE svg PUBLIC "-//W3C//DTD SVG 1.1//EN" "http://www.w3.org/Graphics/SVG/1.1/DTD/svg11.dtd">
<svg xmlns="http://www.w3.org/2000/svg" xmlns:xlink="http://www.w3.org/1999/xlink" version="1.1" viewBox="-11 0 597 512">
  <path fill="#e9b142" d="M565 298q-72 12 -124 -32v0 q-52 -43 -54 -115q0 -41 20 -76q20 -34 56 -55q5 -4 4 -9q-1 -6 -7 -8q-17 -3 -36 -3q-81 2 -136 56q-54 54 -56 136q0 13 2 25q9 6 17 14q18 -7 36 -7q41 1 67 28q27 27 28 68v11q36 17 53 52q41 -3 76 -21q36 -18 61 -49q5 -5 2 -10q-2 -5 -9 -5v0z"/>
  <path fill="#ddc7a1" d="M343 353q9 -15 9 -33q-1 -27 -19 -45t-44 -19q-27 1 -44 18q-14 -23 -36 -37t-50 -14q-41 1 -68 28t-28 68v3q1 2 1 3q-29 10 -47 34q-17 24 -18 56q2 41 29 68q27 28 68 29h239q34 -1 56 -23q22 -23 23 -57q0 -32 -20 -54t-51 -25v0z"/>
</svg>
