<svg width="659" height="512" viewBox="0 0 659 512" fill="none" xmlns="http://www.w3.org/2000/svg">
<path d="M298 352C306.667 352 314.333 355 321 361C321.667 363 328 367 340 373C351.987 379.659 369.961 383.325 393.923 383.997C393.304 389.575 393 395.247 393 401V401.341L393.007 401.681C393.355 418.023 396.012 433.486 400.998 447.91C398.706 447.969 396.373 448 394 448C372 448 353 445.333 337 440C321 434.667 308 429 298 423C288 429.667 275 435.333 259 440C243 445.333 224 448 202 448C180 448 161 445.333 145 440C129 435.333 116 429.667 106 423C92.6667 431.667 73.3333 439 48 445C38.6667 446.333 30.6666 444.667 24 440C16.6667 434.667 12.3333 427.667 11 419C9.00001 409.667 10.6667 401.667 16 395C20.6667 387.667 27.3334 383.333 36 382C51.3333 378.667 63 374.667 71 370C78.9999 364.667 83.3333 361.667 84 361C90.6666 355 98 352 106 352C114.667 352 122.333 355 129 361C129.667 363 136 367 148 373C160 379.667 178 383.333 202 384C226 383.333 244 379.667 256 373C268 367 274.667 363 276 361C282.667 355 290 352 298 352ZM490 352C498.667 352 506.333 355 513 361C513 362.333 517 365.333 525 370C533 374.667 544.667 378.667 560 382C568.667 383.333 575.333 387.667 580 395C585.333 401.667 587.333 409.667 586 419C584 427.667 579.333 434.667 572 440C565.333 444.667 557 446.333 547 445C521.667 439 502.333 431.667 489 423C479.667 429 467 434.667 451 440C445.756 441.824 440.082 443.335 433.98 444.535C428.333 431.393 425.338 416.882 425 401C425 393.806 425.586 386.932 426.758 380.377C435.002 378.572 442.083 376.114 448 373C460 367 466.667 363 468 361C474.667 355 482 352 490 352ZM298 208C306.667 208 314.333 211 321 217C321.667 218.333 328 222.333 340 229C352 235.667 370 239.333 394 240C418 238.667 436.333 235 449 229C461 222.333 467.333 218.333 468 217C472.845 212.639 478.043 209.864 483.593 208.673C478.326 224.134 472.267 237.359 465.561 248.536C456.016 264.443 446.884 278.614 438.17 291.095C435.757 294.231 433.416 297.367 431.151 300.504C419.9 302.423 407.516 303.59 394 304C372 303.333 353 300.667 337 296C321 290.667 308 285 298 279C288 285 275 290.667 259 296C243 300.667 224 303.333 202 304C180 303.333 161 300.667 145 296C129 290.667 116 285 106 279C92.6667 287.667 73.3333 294.667 48 300C38.6667 302 30.6667 300.333 24 295C16.6667 290.333 12.3333 283.667 11 275C9.00001 265.667 10.6667 257.667 16 251C20.6667 243.667 27.3334 239.333 36 238C51.3333 234.667 62.6667 230.667 70 226C77.9999 221.333 82.6667 218.333 84 217C90.6666 211 98 208 106 208C114.667 208 122.333 211 129 217C129.667 219 136 223 148 229C160 235.667 178 239.333 202 240C226 238.667 244.333 235 257 229C269 222.333 275.333 218.333 276 217C282.667 211 290 208 298 208ZM514.128 218.271C515.829 219.725 519.452 222.302 525 226C533 230.667 544.667 234.667 560 238C563.148 238.484 566.032 239.366 568.652 240.643C572.553 249.813 576.669 258.265 581 266C582.461 268.338 583.924 270.646 585.385 272.927C585.276 273.61 585.15 274.302 585 275C583.667 283.667 579.333 290.333 572 295C565.333 300.333 557.333 302 548 300C522.667 294.667 503.333 287.667 490 279C487.375 280.575 484.542 282.125 481.504 283.654C485.285 277.687 489.118 271.47 493 265C501.15 251.416 508.192 235.84 514.128 218.271ZM490 64C498.667 64 506.333 67 513 73C513 73.6667 517 76.6667 525 82C533 86.6666 544.667 90.3333 560 93C568.667 95 575.333 99.6667 580 107C585.333 113.667 587.333 121.667 586 131C584 139.667 579.333 146.333 572 151C565.333 156.333 557.333 158 548 156C522.667 150.667 503.333 143.667 490 135C480 141 467 146.667 451 152C435 156.667 416 159.333 394 160C372 159.333 353 156.667 337 152C321 146.667 308 141 298 135C288 141 275 146.667 259 152C243 156.667 224 159.333 202 160C180 159.333 161 156.667 145 152C129 146.667 116 141 106 135C92.6667 143.667 73.3333 150.667 48 156C38.6667 158 30.6667 156.333 24 151C16.6667 146.333 12.3333 139.667 11 131C9.00001 121.667 10.6667 113.667 16 107C20.6667 99.6667 27.3334 95.3333 36 94C51.9999 90.6667 63.6667 86.3333 71 81C78.9999 76.3334 83.3333 73.6667 84 73C90.6666 67.0001 98 64 106 64C114.667 64 122.333 67 129 73C129.667 75 136 79.0001 148 85C160.667 91.6666 178.667 95.3333 202 96C226 94.6667 244.333 91 257 85C269 78.3334 275.333 74.3333 276 73C282.667 67.0001 290 64 298 64C306.667 64 314.333 67 321 73C321.667 74.3334 328 78.3335 340 85C352 91 370 94.6667 394 96C418 94.6667 436.333 91 449 85C461 78.3334 467.333 74.3333 468 73C474.667 67.0001 482 64 490 64Z" fill="#80AA9E"/>
<path d="M556 206C552.667 196.667 546.333 192 537 192C528.333 192 522 196.667 518 206C511.333 228.667 503 248.333 493 265C483 281.667 473.333 296.667 464 310C452.667 324.667 443.333 339 436 353C428.667 367 425 383 425 401C425.667 432.333 436.667 458.333 458 479C478.667 500.333 505 511.333 537 512C569 511.333 595.333 500.333 616 479C637.333 458.333 648.333 432.333 649 401C649 383 645.333 367 638 353C630.667 339 621.667 324.667 611 310C601 296.667 591 282 581 266C571.667 249.333 563.333 229.333 556 206Z" fill="#80AA9E"/>
</svg>
