<?xml version="1.0" standalone="no"?>
<!DOCTYPE svg PUBLIC "-//W3C//DTD SVG 1.1//EN" "http://www.w3.org/Graphics/SVG/1.1/DTD/svg11.dtd" >
<svg xmlns="http://www.w3.org/2000/svg" viewBox="-10 0 660 512">
  <path d="M444 128q-7 -12 -20 -15v0q-12 -3 -24 3l-25 15l5 -20q4 -22 -17 -30q-21 -3 -29 17l-18 67l-60 36v-71l48 -49q14 -17 0 -34q-17 -14 -33 0l-15 15v-30q0 -14 -9 -23t-23 -9q-13 0 -22 9t-10 23v30l-15 -15q-16 -14 -33 0q-14 17 0 34l48 49v71l-60 -36l-18 -67
q-8 -20 -29 -17q-21 8 -17 30l5 20l-25 -15q-12 -6 -25 -3q-12 3 -19 15q-6 12 -3 24q3 13 15 20l26 15l-21 5q-20 8 -16 30q5 17 23 17h6l66 -18l61 35l-61 35l-66 -18q-10 -3 -18 2q-9 5 -11 15q-4 22 16 30l21 5l-26 15q-12 7 -15 20q-3 12 3 24q10 16 28 16q8 0 16 -4
l25 -15l-5 20q-4 22 17 30h6q17 0 23 -17l18 -67l60 -36v71l-48 49q-14 17 0 34q17 14 33 0l15 -15v30q1 14 10 23t22 9t22 -9q10 -9 10 -23v-30l15 15q7 7 16 7q10 0 17 -7q14 -17 0 -34l-48 -49v-71l60 36l18 67q6 17 23 17h6q21 -8 17 -30l-5 -20l25 15q8 4 16 4
q18 0 28 -16q6 -12 3 -24q-3 -13 -15 -20l-26 -15l21 -5q20 -8 16 -30q-7 -20 -29 -17l-66 18l-61 -35l61 -35l66 18h6q18 0 23 -17q4 -22 -16 -30l-21 -5l26 -15q12 -7 15 -20q3 -12 -3 -24v0zM610 256l23 -23q14 -17 0 -34q-17 -14 -34 0l-23 23l-23 -23q-17 -14 -34 0
q-14 17 0 34l23 23l-23 23q-14 17 0 34q8 7 16 7q9 0 17 -7l23 -23l23 23q9 7 17 7q9 0 17 -7q14 -17 0 -34l-22 -23v0zM543 98l23 23q9 7 17 7q9 0 17 -7q14 -17 0 -34l-22 -23l23 -23q14 -17 0 -34q-17 -14 -34 0l-23 23l-23 -23q-17 -14 -34 0q-14 17 0 34l23 23l-23 23
q-14 17 0 34q8 7 16 7q9 0 17 -7l23 -23v0z" fill="#80aa9e"/>
</svg>
